<?xml version="1.0" encoding="UTF-8"?>
<svg width="1080" height="1920" viewBox="0 0 1080 1920"
     xmlns="http://www.w3.org/2000/svg">
<defs>
  <!-- Backgrounds -->
  <linearGradient id="bgGrad" x1="0" y1="0" x2="0" y2="1">
    <stop offset="0%"   stop-color="#000d1f"/>
    <stop offset="35%"  stop-color="#001a4d"/>
    <stop offset="70%"  stop-color="#001133"/>
    <stop offset="100%" stop-color="#000508"/>
  </linearGradient>

  <!-- Stadium light glow -->
  <radialGradient id="glow1" cx="20%" cy="18%" r="40%">
    <stop offset="0%"  stop-color="#4488ff" stop-opacity="0.35"/>
    <stop offset="100%" stop-color="#000" stop-opacity="0"/>
  </radialGradient>
  <radialGradient id="glow2" cx="80%" cy="18%" r="40%">
    <stop offset="0%"  stop-color="#4488ff" stop-opacity="0.35"/>
    <stop offset="100%" stop-color="#000" stop-opacity="0"/>
  </radialGradient>
  <radialGradient id="glow3" cx="50%" cy="60%" r="55%">
    <stop offset="0%"  stop-color="#003DA5" stop-opacity="0.2"/>
    <stop offset="100%" stop-color="#000" stop-opacity="0"/>
  </radialGradient>

  <!-- Ball gradient -->
  <radialGradient id="ballGrad" cx="38%" cy="35%" r="60%">
    <stop offset="0%"   stop-color="#ffffff"/>
    <stop offset="60%"  stop-color="#dddddd"/>
    <stop offset="100%" stop-color="#888888"/>
  </radialGradient>

  <!-- Gold gradient for title -->
  <linearGradient id="goldGrad" x1="0" y1="0" x2="0" y2="1">
    <stop offset="0%"   stop-color="#FFE066"/>
    <stop offset="40%"  stop-color="#F5A623"/>
    <stop offset="100%" stop-color="#C67700"/>
  </linearGradient>

  <!-- Red gradient for banners -->
  <linearGradient id="redGrad" x1="0" y1="0" x2="1" y2="0">
    <stop offset="0%"   stop-color="#8B0000"/>
    <stop offset="30%"  stop-color="#C8102E"/>
    <stop offset="70%"  stop-color="#C8102E"/>
    <stop offset="100%" stop-color="#8B0000"/>
  </linearGradient>
  <linearGradient id="redGrad2" x1="0" y1="0" x2="1" y2="0">
    <stop offset="0%"   stop-color="#6B0000"/>
    <stop offset="50%"  stop-color="#A00020"/>
    <stop offset="100%" stop-color="#6B0000"/>
  </linearGradient>

  <!-- Grass -->
  <linearGradient id="grassGrad" x1="0" y1="0" x2="0" y2="1">
    <stop offset="0%"   stop-color="#1a7a1a"/>
    <stop offset="100%" stop-color="#0d4d0d"/>
  </linearGradient>

  <!-- Prize box -->
  <linearGradient id="prizeGrad" x1="0" y1="0" x2="0" y2="1">
    <stop offset="0%"   stop-color="#1a2a4a"/>
    <stop offset="100%" stop-color="#0d1a33"/>
  </linearGradient>

  <!-- Glow filter -->
  <filter id="glow" x="-30%" y="-30%" width="160%" height="160%">
    <feGaussianBlur in="SourceGraphic" stdDeviation="6" result="blur"/>
    <feMerge><feMergeNode in="blur"/><feMergeNode in="SourceGraphic"/></feMerge>
  </filter>
  <filter id="strongGlow" x="-50%" y="-50%" width="200%" height="200%">
    <feGaussianBlur in="SourceGraphic" stdDeviation="12" result="blur"/>
    <feMerge><feMergeNode in="blur"/><feMergeNode in="blur"/><feMergeNode in="SourceGraphic"/></feMerge>
  </filter>
  <filter id="shadow" x="-10%" y="-10%" width="120%" height="130%">
    <feDropShadow dx="0" dy="4" stdDeviation="8" flood-color="#000" flood-opacity="0.8"/>
  </filter>
  <filter id="textShadow" x="-5%" y="-5%" width="110%" height="120%">
    <feDropShadow dx="3" dy="3" stdDeviation="5" flood-color="#000" flood-opacity="0.9"/>
  </filter>
</defs>

<!-- ── BASE ─────────────────────────────────────────────────────────────── -->
<rect width="1080" height="1920" fill="url(#bgGrad)"/>
<rect width="1080" height="1920" fill="url(#glow1)"/>
<rect width="1080" height="1920" fill="url(#glow2)"/>
<rect width="1080" height="1920" fill="url(#glow3)"/>

<!-- Stars -->
<circle cx="812.8" cy="235.0" r="1.3" fill="white" opacity="0.56"/><circle cx="897.9" cy="382.3" r="3.0" fill="white" opacity="0.69"/><circle cx="765.3" cy="1046.8" r="1.8" fill="white" opacity="0.35"/><circle cx="881.5" cy="64.3" r="1.9" fill="white" opacity="0.45"/><circle cx="713.3" cy="511.5" r="1.2" fill="white" opacity="0.33"/><circle cx="407.4" cy="380.7" r="1.4" fill="white" opacity="0.96"/><circle cx="1030.3" cy="910.4" r="1.3" fill="white" opacity="0.85"/><circle cx="128.7" cy="836.1" r="2.9" fill="white" opacity="0.88"/><circle cx="969.4" cy="848.8" r="3.3" fill="white" opacity="0.54"/><circle cx="899.0" cy="309.5" r="1.2" fill="white" opacity="0.83"/><circle cx="944.1" cy="1004.4" r="2.3" fill="white" opacity="0.70"/><circle cx="1011.5" cy="1043.1" r="1.8" fill="white" opacity="0.95"/><circle cx="127.7" cy="21.4" r="3.1" fill="white" opacity="0.87"/><circle cx="639.5" cy="664.2" r="3.5" fill="white" opacity="0.97"/><circle cx="173.5" cy="611.6" r="1.1" fill="white" opacity="0.56"/><circle cx="516.4" cy="750.2" r="1.4" fill="white" opacity="0.73"/><circle cx="1014.9" cy="519.5" r="3.2" fill="white" opacity="0.74"/><circle cx="255.6" cy="258.3" r="2.7" fill="white" opacity="0.53"/><circle cx="625.2" cy="32.0" r="2.7" fill="white" opacity="0.87"/><circle cx="630.3" cy="218.4" r="3.2" fill="white" opacity="0.48"/><circle cx="897.6" cy="687.3" r="3.4" fill="white" opacity="0.63"/><circle cx="93.9" cy="682.6" r="1.1" fill="white" opacity="0.36"/><circle cx="205.7" cy="464.9" r="2.4" fill="white" opacity="0.67"/><circle cx="659.7" cy="490.5" r="2.4" fill="white" opacity="0.62"/><circle cx="722.6" cy="238.1" r="3.3" fill="white" opacity="0.38"/><circle cx="461.1" cy="906.9" r="2.7" fill="white" opacity="0.36"/><circle cx="261.7" cy="371.9" r="1.3" fill="white" opacity="0.98"/><circle cx="1071.3" cy="458.4" r="3.4" fill="white" opacity="0.67"/><circle cx="1036.4" cy="136.4" r="3.2" fill="white" opacity="0.73"/><circle cx="423.8" cy="1035.6" r="1.7" fill="white" opacity="0.77"/><circle cx="780.0" cy="991.7" r="3.2" fill="white" opacity="0.32"/><circle cx="491.8" cy="969.6" r="3.1" fill="white" opacity="0.83"/><circle cx="785.9" cy="17.4" r="2.9" fill="white" opacity="0.45"/><circle cx="568.8" cy="429.9" r="1.7" fill="white" opacity="0.49"/><circle cx="627.2" cy="942.2" r="1.4" fill="white" opacity="0.45"/><circle cx="987.9" cy="133.5" r="1.5" fill="white" opacity="0.50"/><circle cx="77.5" cy="532.9" r="3.3" fill="white" opacity="0.94"/><circle cx="2.6" cy="758.5" r="2.5" fill="white" opacity="0.74"/><circle cx="670.0" cy="1031.8" r="1.7" fill="white" opacity="0.67"/><circle cx="26.2" cy="948.8" r="1.9" fill="white" opacity="0.75"/><circle cx="418.0" cy="66.3" r="2.8" fill="white" opacity="0.77"/><circle cx="552.0" cy="248.4" r="2.6" fill="white" opacity="0.75"/><circle cx="54.9" cy="269.7" r="1.9" fill="white" opacity="0.37"/><circle cx="433.4" cy="625.6" r="1.8" fill="white" opacity="0.30"/><circle cx="274.1" cy="599.1" r="3.4" fill="white" opacity="0.48"/><circle cx="883.7" cy="255.4" r="2.3" fill="white" opacity="0.98"/><circle cx="768.8" cy="1028.5" r="3.3" fill="white" opacity="0.51"/><circle cx="556.1" cy="676.1" r="3.3" fill="white" opacity="0.35"/><circle cx="1072.4" cy="554.0" r="2.4" fill="white" opacity="0.94"/><circle cx="1064.2" cy="922.9" r="1.8" fill="white" opacity="0.46"/><circle cx="1038.2" cy="127.3" r="1.5" fill="white" opacity="0.81"/><circle cx="261.1" cy="813.5" r="1.2" fill="white" opacity="0.72"/><circle cx="959.6" cy="1013.0" r="1.3" fill="white" opacity="0.62"/><circle cx="280.2" cy="712.7" r="2.0" fill="white" opacity="0.93"/><circle cx="249.8" cy="681.9" r="3.0" fill="white" opacity="0.78"/><circle cx="94.9" cy="946.5" r="3.4" fill="white" opacity="0.76"/><circle cx="82.3" cy="1024.3" r="1.6" fill="white" opacity="0.49"/><circle cx="678.5" cy="863.1" r="2.0" fill="white" opacity="0.90"/><circle cx="270.3" cy="371.6" r="2.4" fill="white" opacity="0.63"/><circle cx="84.4" cy="710.2" r="2.0" fill="white" opacity="0.64"/><circle cx="107.3" cy="1005.3" r="2.2" fill="white" opacity="0.83"/><circle cx="45.7" cy="1048.3" r="2.4" fill="white" opacity="0.71"/><circle cx="1006.4" cy="474.3" r="2.3" fill="white" opacity="0.45"/><circle cx="336.0" cy="756.3" r="2.9" fill="white" opacity="0.35"/><circle cx="141.1" cy="512.6" r="2.6" fill="white" opacity="0.77"/><circle cx="328.5" cy="1020.6" r="1.6" fill="white" opacity="0.39"/><circle cx="1004.7" cy="820.3" r="3.2" fill="white" opacity="0.62"/><circle cx="196.5" cy="524.3" r="2.2" fill="white" opacity="0.56"/><circle cx="930.5" cy="941.1" r="1.7" fill="white" opacity="0.93"/><circle cx="673.4" cy="845.1" r="2.4" fill="white" opacity="0.71"/><circle cx="931.9" cy="731.7" r="2.8" fill="white" opacity="0.57"/><circle cx="292.6" cy="939.9" r="1.7" fill="white" opacity="0.44"/><circle cx="62.2" cy="478.8" r="1.9" fill="white" opacity="0.39"/><circle cx="907.3" cy="782.6" r="1.0" fill="white" opacity="0.54"/><circle cx="214.6" cy="664.8" r="3.2" fill="white" opacity="0.77"/><circle cx="970.9" cy="425.4" r="1.2" fill="white" opacity="0.81"/><circle cx="842.7" cy="325.0" r="1.1" fill="white" opacity="0.96"/><circle cx="336.7" cy="820.0" r="3.0" fill="white" opacity="1.00"/><circle cx="879.6" cy="332.9" r="1.7" fill="white" opacity="0.36"/><circle cx="378.1" cy="63.0" r="2.3" fill="white" opacity="0.89"/><circle cx="298.7" cy="1053.4" r="2.8" fill="white" opacity="0.89"/><circle cx="508.3" cy="905.3" r="2.7" fill="white" opacity="0.89"/><circle cx="233.4" cy="700.6" r="1.1" fill="white" opacity="0.79"/><circle cx="820.8" cy="1013.1" r="1.5" fill="white" opacity="0.91"/><circle cx="577.0" cy="734.5" r="3.3" fill="white" opacity="0.77"/><circle cx="48.8" cy="829.7" r="1.8" fill="white" opacity="0.43"/><circle cx="462.9" cy="346.9" r="1.1" fill="white" opacity="0.82"/><circle cx="725.8" cy="524.7" r="2.7" fill="white" opacity="0.47"/><circle cx="544.2" cy="98.4" r="3.4" fill="white" opacity="0.98"/><circle cx="1024.9" cy="815.0" r="3.0" fill="white" opacity="0.40"/><circle cx="594.5" cy="979.7" r="2.5" fill="white" opacity="0.46"/><circle cx="279.6" cy="266.6" r="2.8" fill="white" opacity="0.80"/><circle cx="1067.0" cy="1009.3" r="1.5" fill="white" opacity="0.81"/><circle cx="903.2" cy="691.7" r="2.0" fill="white" opacity="0.50"/><circle cx="1055.0" cy="982.4" r="1.5" fill="white" opacity="0.36"/><circle cx="229.0" cy="577.9" r="3.3" fill="white" opacity="0.42"/><circle cx="211.9" cy="364.5" r="2.8" fill="white" opacity="0.36"/><circle cx="350.4" cy="837.8" r="1.3" fill="white" opacity="0.83"/><circle cx="311.1" cy="224.6" r="2.4" fill="white" opacity="0.39"/><circle cx="320.7" cy="702.2" r="1.6" fill="white" opacity="0.50"/><circle cx="1045.8" cy="536.7" r="1.2" fill="white" opacity="0.58"/><circle cx="953.1" cy="653.6" r="3.1" fill="white" opacity="0.49"/><circle cx="869.4" cy="296.8" r="2.5" fill="white" opacity="0.69"/><circle cx="621.2" cy="783.1" r="3.0" fill="white" opacity="0.76"/><circle cx="715.2" cy="456.8" r="2.1" fill="white" opacity="0.48"/><circle cx="418.1" cy="908.3" r="2.1" fill="white" opacity="0.70"/><circle cx="876.6" cy="169.1" r="3.3" fill="white" opacity="0.45"/><circle cx="317.2" cy="338.2" r="3.5" fill="white" opacity="0.84"/><circle cx="766.8" cy="72.7" r="2.3" fill="white" opacity="0.30"/><circle cx="371.9" cy="454.7" r="1.3" fill="white" opacity="0.82"/><circle cx="479.3" cy="1001.8" r="1.5" fill="white" opacity="0.63"/><circle cx="475.5" cy="606.0" r="2.1" fill="white" opacity="0.65"/><circle cx="907.3" cy="231.8" r="1.1" fill="white" opacity="0.93"/><circle cx="841.4" cy="1039.7" r="2.6" fill="white" opacity="0.31"/><circle cx="264.3" cy="44.1" r="3.1" fill="white" opacity="0.82"/><circle cx="1042.7" cy="204.5" r="2.0" fill="white" opacity="0.54"/><circle cx="1043.4" cy="99.8" r="1.2" fill="white" opacity="0.36"/><circle cx="853.0" cy="147.2" r="2.2" fill="white" opacity="0.57"/><circle cx="418.1" cy="20.7" r="3.0" fill="white" opacity="0.83"/><circle cx="725.5" cy="998.1" r="1.4" fill="white" opacity="0.53"/>

<!-- Confetti -->
<rect x="107.1" y="673.0" width="18.4" height="7.4" fill="#ffffff" opacity="0.43" transform="rotate(76.6,107.1,673.0)"/><rect x="942.6" y="473.6" width="9.3" height="3.7" fill="#e74c3c" opacity="0.52" transform="rotate(322.1,942.6,473.6)"/><rect x="338.5" y="417.5" width="7.7" height="3.1" fill="#ffffff" opacity="0.67" transform="rotate(152.6,338.5,417.5)"/><rect x="213.5" y="1032.4" width="9.4" height="3.8" fill="#F5A623" opacity="0.56" transform="rotate(220.8,213.5,1032.4)"/><rect x="1076.7" y="898.7" width="7.0" height="2.8" fill="#003DA5" opacity="0.62" transform="rotate(266.2,1076.7,898.7)"/><rect x="971.7" y="422.1" width="11.5" height="4.6" fill="#003DA5" opacity="0.56" transform="rotate(235.8,971.7,422.1)"/><rect x="317.1" y="359.6" width="10.0" height="4.0" fill="#e74c3c" opacity="0.70" transform="rotate(272.2,317.1,359.6)"/><rect x="1073.1" y="746.4" width="14.6" height="5.8" fill="#F5A623" opacity="0.77" transform="rotate(279.5,1073.1,746.4)"/><rect x="874.3" y="674.3" width="18.7" height="7.5" fill="#F5A623" opacity="0.76" transform="rotate(43.3,874.3,674.3)"/><rect x="861.7" y="1051.5" width="8.4" height="3.4" fill="#2ecc71" opacity="0.56" transform="rotate(76.6,861.7,1051.5)"/><rect x="313.6" y="712.8" width="6.7" height="2.7" fill="#2ecc71" opacity="0.66" transform="rotate(26.9,313.6,712.8)"/><rect x="587.5" y="971.9" width="11.1" height="4.5" fill="#2ecc71" opacity="0.53" transform="rotate(36.5,587.5,971.9)"/><rect x="654.3" y="824.8" width="18.6" height="7.4" fill="#f39c12" opacity="0.71" transform="rotate(272.2,654.3,824.8)"/><rect x="794.9" y="294.4" width="6.4" height="2.6" fill="#003DA5" opacity="0.84" transform="rotate(235.0,794.9,294.4)"/><rect x="522.8" y="365.9" width="13.8" height="5.5" fill="#f39c12" opacity="0.53" transform="rotate(87.0,522.8,365.9)"/><rect x="280.6" y="204.1" width="16.7" height="6.7" fill="#003DA5" opacity="0.53" transform="rotate(25.9,280.6,204.1)"/><rect x="1075.6" y="741.6" width="15.3" height="6.1" fill="#f39c12" opacity="0.77" transform="rotate(124.3,1075.6,741.6)"/><rect x="261.8" y="448.5" width="18.7" height="7.5" fill="#e74c3c" opacity="0.64" transform="rotate(83.4,261.8,448.5)"/><rect x="852.8" y="532.9" width="16.8" height="6.7" fill="#ffffff" opacity="0.65" transform="rotate(59.7,852.8,532.9)"/><rect x="714.4" y="1063.2" width="10.1" height="4.0" fill="#f39c12" opacity="0.73" transform="rotate(33.5,714.4,1063.2)"/><rect x="80.5" y="941.1" width="11.9" height="4.8" fill="#ffffff" opacity="0.47" transform="rotate(137.8,80.5,941.1)"/><rect x="761.0" y="976.4" width="16.1" height="6.4" fill="#ffffff" opacity="0.82" transform="rotate(316.2,761.0,976.4)"/><rect x="384.8" y="432.7" width="6.5" height="2.6" fill="#2ecc71" opacity="0.42" transform="rotate(109.2,384.8,432.7)"/><rect x="949.0" y="214.3" width="8.6" height="3.4" fill="#003DA5" opacity="0.62" transform="rotate(357.1,949.0,214.3)"/><rect x="994.2" y="664.7" width="13.1" height="5.2" fill="#2ecc71" opacity="0.80" transform="rotate(237.7,994.2,664.7)"/><rect x="939.0" y="905.9" width="18.3" height="7.3" fill="#ffffff" opacity="0.69" transform="rotate(249.4,939.0,905.9)"/><rect x="73.2" y="649.2" width="13.8" height="5.5" fill="#003DA5" opacity="0.59" transform="rotate(56.5,73.2,649.2)"/><rect x="162.6" y="367.7" width="18.7" height="7.5" fill="#e74c3c" opacity="0.46" transform="rotate(186.1,162.6,367.7)"/><rect x="105.1" y="278.8" width="18.1" height="7.2" fill="#f39c12" opacity="0.44" transform="rotate(275.9,105.1,278.8)"/><rect x="370.6" y="269.4" width="16.9" height="6.8" fill="#e74c3c" opacity="0.65" transform="rotate(161.2,370.6,269.4)"/><rect x="45.3" y="731.3" width="18.5" height="7.4" fill="#ffffff" opacity="0.49" transform="rotate(279.4,45.3,731.3)"/><rect x="351.5" y="1158.4" width="15.0" height="6.0" fill="#F5A623" opacity="0.53" transform="rotate(302.1,351.5,1158.4)"/><rect x="164.6" y="794.9" width="13.6" height="5.4" fill="#f39c12" opacity="0.56" transform="rotate(211.2,164.6,794.9)"/><rect x="98.8" y="584.8" width="10.0" height="4.0" fill="#003DA5" opacity="0.54" transform="rotate(31.3,98.8,584.8)"/><rect x="141.8" y="632.9" width="12.5" height="5.0" fill="#e74c3c" opacity="0.78" transform="rotate(92.7,141.8,632.9)"/><rect x="390.2" y="586.6" width="17.7" height="7.1" fill="#e74c3c" opacity="0.88" transform="rotate(18.3,390.2,586.6)"/><rect x="127.4" y="509.2" width="8.8" height="3.5" fill="#C8102E" opacity="0.52" transform="rotate(289.4,127.4,509.2)"/><rect x="1014.6" y="534.6" width="9.8" height="3.9" fill="#e74c3c" opacity="0.84" transform="rotate(81.6,1014.6,534.6)"/><rect x="456.3" y="232.9" width="6.6" height="2.6" fill="#003DA5" opacity="0.72" transform="rotate(88.0,456.3,232.9)"/><rect x="891.3" y="297.5" width="15.0" height="6.0" fill="#F5A623" opacity="0.60" transform="rotate(240.1,891.3,297.5)"/><rect x="11.2" y="283.3" width="14.6" height="5.8" fill="#ffffff" opacity="0.64" transform="rotate(143.0,11.2,283.3)"/><rect x="77.2" y="286.6" width="7.0" height="2.8" fill="#e74c3c" opacity="0.90" transform="rotate(235.7,77.2,286.6)"/><rect x="795.7" y="775.2" width="9.7" height="3.9" fill="#ffffff" opacity="0.41" transform="rotate(153.8,795.7,775.2)"/><rect x="425.6" y="301.2" width="12.5" height="5.0" fill="#ffffff" opacity="0.53" transform="rotate(44.5,425.6,301.2)"/><rect x="357.0" y="1143.6" width="8.2" height="3.3" fill="#ffffff" opacity="0.48" transform="rotate(51.4,357.0,1143.6)"/><rect x="573.8" y="1013.3" width="6.3" height="2.5" fill="#e74c3c" opacity="0.76" transform="rotate(299.2,573.8,1013.3)"/><rect x="139.8" y="548.8" width="7.9" height="3.1" fill="#2ecc71" opacity="0.50" transform="rotate(15.5,139.8,548.8)"/><rect x="381.8" y="412.9" width="12.1" height="4.9" fill="#ffffff" opacity="0.57" transform="rotate(100.5,381.8,412.9)"/><rect x="608.7" y="921.4" width="10.5" height="4.2" fill="#2ecc71" opacity="0.52" transform="rotate(41.0,608.7,921.4)"/><rect x="779.9" y="572.5" width="19.0" height="7.6" fill="#F5A623" opacity="0.83" transform="rotate(139.4,779.9,572.5)"/><rect x="421.8" y="1127.4" width="13.1" height="5.2" fill="#2ecc71" opacity="0.52" transform="rotate(135.3,421.8,1127.4)"/><rect x="107.0" y="732.7" width="19.0" height="7.6" fill="#f39c12" opacity="0.84" transform="rotate(328.9,107.0,732.7)"/><rect x="733.5" y="493.1" width="8.9" height="3.6" fill="#ffffff" opacity="0.47" transform="rotate(64.9,733.5,493.1)"/><rect x="978.9" y="706.7" width="14.3" height="5.7" fill="#f39c12" opacity="0.68" transform="rotate(225.7,978.9,706.7)"/><rect x="587.9" y="1130.1" width="14.3" height="5.7" fill="#2ecc71" opacity="0.57" transform="rotate(92.3,587.9,1130.1)"/><rect x="686.2" y="205.8" width="6.5" height="2.6" fill="#ffffff" opacity="0.53" transform="rotate(82.4,686.2,205.8)"/><rect x="681.6" y="420.2" width="6.3" height="2.5" fill="#2ecc71" opacity="0.51" transform="rotate(183.1,681.6,420.2)"/><rect x="762.6" y="803.7" width="10.2" height="4.1" fill="#C8102E" opacity="0.79" transform="rotate(9.1,762.6,803.7)"/><rect x="377.3" y="540.7" width="12.6" height="5.0" fill="#ffffff" opacity="0.57" transform="rotate(202.6,377.3,540.7)"/><rect x="82.7" y="942.3" width="7.4" height="3.0" fill="#C8102E" opacity="0.59" transform="rotate(125.6,82.7,942.3)"/><rect x="926.4" y="469.1" width="14.1" height="5.7" fill="#2ecc71" opacity="0.53" transform="rotate(22.7,926.4,469.1)"/><rect x="650.7" y="296.1" width="10.3" height="4.1" fill="#f39c12" opacity="0.75" transform="rotate(262.8,650.7,296.1)"/><rect x="862.5" y="228.2" width="14.0" height="5.6" fill="#F5A623" opacity="0.54" transform="rotate(259.0,862.5,228.2)"/><rect x="157.9" y="1017.5" width="8.7" height="3.5" fill="#f39c12" opacity="0.48" transform="rotate(295.0,157.9,1017.5)"/><rect x="844.4" y="1051.2" width="17.4" height="6.9" fill="#F5A623" opacity="0.85" transform="rotate(37.4,844.4,1051.2)"/><rect x="471.2" y="1061.6" width="11.3" height="4.5" fill="#e74c3c" opacity="0.59" transform="rotate(21.6,471.2,1061.6)"/><rect x="669.1" y="506.4" width="8.7" height="3.5" fill="#e74c3c" opacity="0.85" transform="rotate(71.2,669.1,506.4)"/><rect x="731.1" y="711.4" width="14.6" height="5.9" fill="#e74c3c" opacity="0.45" transform="rotate(38.9,731.1,711.4)"/><rect x="335.2" y="822.8" width="9.5" height="3.8" fill="#003DA5" opacity="0.55" transform="rotate(247.9,335.2,822.8)"/><rect x="980.0" y="222.7" width="9.4" height="3.7" fill="#2ecc71" opacity="0.46" transform="rotate(2.3,980.0,222.7)"/><rect x="835.7" y="654.3" width="19.9" height="8.0" fill="#e74c3c" opacity="0.42" transform="rotate(5.9,835.7,654.3)"/><rect x="120.0" y="1069.2" width="11.8" height="4.7" fill="#F5A623" opacity="0.77" transform="rotate(37.6,120.0,1069.2)"/><rect x="361.5" y="1005.4" width="13.6" height="5.4" fill="#F5A623" opacity="0.62" transform="rotate(61.7,361.5,1005.4)"/><rect x="81.4" y="227.2" width="7.6" height="3.0" fill="#ffffff" opacity="0.43" transform="rotate(263.5,81.4,227.2)"/><rect x="1034.2" y="355.8" width="12.6" height="5.1" fill="#F5A623" opacity="0.54" transform="rotate(86.6,1034.2,355.8)"/><rect x="0.4" y="541.1" width="18.0" height="7.2" fill="#C8102E" opacity="0.47" transform="rotate(223.1,0.4,541.1)"/><rect x="249.4" y="1065.4" width="19.1" height="7.7" fill="#ffffff" opacity="0.81" transform="rotate(253.4,249.4,1065.4)"/><rect x="927.6" y="687.8" width="8.8" height="3.5" fill="#C8102E" opacity="0.71" transform="rotate(25.8,927.6,687.8)"/><rect x="109.6" y="1139.7" width="13.2" height="5.3" fill="#C8102E" opacity="0.58" transform="rotate(173.6,109.6,1139.7)"/><rect x="546.0" y="262.2" width="19.4" height="7.8" fill="#ffffff" opacity="0.62" transform="rotate(319.3,546.0,262.2)"/>

<!-- ── STADIUM ───────────────────────────────────────────────────────────── -->
<!-- Grass field at bottom -->
<ellipse cx="540" cy="1920" rx="700" ry="240" fill="url(#grassGrad)" opacity="0.6"/>
<!-- Field lines -->
<ellipse cx="540" cy="1920" rx="480" ry="165" fill="none" stroke="#2a9a2a" stroke-width="3" opacity="0.4"/>
<line x1="540" y1="1660" x2="540" y2="1920" stroke="#2a9a2a" stroke-width="2" opacity="0.3"/>

<!-- Stadium silhouette arches left -->
<path d="M -20 1190.4 Q 80 672 220 729.6 L 220 1190.4 Z" fill="#001133" opacity="0.7"/>
<path d="M -20 1190.4 Q 80 672 220 729.6" fill="none" stroke="#1a4a8a" stroke-width="4" opacity="0.5"/>
<!-- Stadium silhouette arches right -->
<path d="M 1100 1190.4 Q 1000 672 860 729.6 L 860 1190.4 Z" fill="#001133" opacity="0.7"/>
<path d="M 1100 1190.4 Q 1000 672 860 729.6" fill="none" stroke="#1a4a8a" stroke-width="4" opacity="0.5"/>

<!-- Floodlights -->
<line x1="130" y1="0" x2="200" y2="1056" stroke="#ffffff" stroke-width="2" opacity="0.08"/>
<line x1="950" y1="0" x2="880" y2="1056" stroke="#ffffff" stroke-width="2" opacity="0.08"/>

<!-- ── TOP STRIP ─────────────────────────────────────────────────────────── -->
<rect x="0" y="0" width="1080" height="90" fill="url(#redGrad)"/>
<rect x="0" y="82" width="1080" height="10" fill="url(#goldGrad)"/>

<text x="540" y="60" text-anchor="middle"
      font-family="Impact, Arial Black, sans-serif" font-size="42" fill="white"
      filter="url(#textShadow)" letter-spacing="6">
  ⚽  MUNDIAL 2026  ⚽
</text>

<!-- ── TROPHY / BALL ────────────────────────────────────────────────────── -->
<!-- Glow behind ball -->
<circle cx="540" cy="310" r="165" fill="#003DA5" opacity="0.25" filter="url(#strongGlow)"/>
<circle cx="540" cy="310" r="130" fill="#F5A623" opacity="0.1" filter="url(#strongGlow)"/>

<!-- Ball -->
<circle cx="540" cy="305" r="118" fill="url(#ballGrad)" filter="url(#shadow)"/>
<!-- Pentagon patches -->
<polygon points="540,192 495,222 512,268 568,268 585,222" fill="#1a1a1a" opacity="0.85"/>
<polygon points="495,222 432,222 420,270 470,298 512,268" fill="#1a1a1a" opacity="0.85"/>
<polygon points="585,222 648,222 660,270 610,298 568,268" fill="#1a1a1a" opacity="0.85"/>
<polygon points="512,268 470,298 490,340 590,340 610,298 568,268" fill="#1a1a1a" opacity="0.85"/>
<polygon points="420,270 392,320 440,360 490,340 470,298" fill="#1a1a1a" opacity="0.85"/>
<polygon points="660,270 688,320 640,360 590,340 610,298" fill="#1a1a1a" opacity="0.85"/>
<!-- Shine -->
<ellipse cx="502" cy="258" rx="32" ry="20" fill="white" opacity="0.35"/>

<!-- Stars around ball -->
<text x="370" y="320" font-size="48" opacity="0.9">⭐</text>
<text x="670" y="320" font-size="48" opacity="0.9">⭐</text>
<text x="440" y="230" font-size="36" opacity="0.7">✦</text>
<text x="615" y="230" font-size="36" opacity="0.7">✦</text>

<!-- ── MAIN TITLE ────────────────────────────────────────────────────────── -->
<!-- Title background glow -->
<rect x="40" y="455" width="1000" height="240" rx="20" fill="#001a4d" opacity="0.7"/>
<rect x="40" y="455" width="1000" height="240" rx="20" fill="none" stroke="url(#goldGrad)" stroke-width="3"/>

<!-- POLLA -->
<text x="540" y="535"
      text-anchor="middle" dominant-baseline="middle"
      font-family="Impact, Arial Black, sans-serif"
      font-size="128" fill="url(#goldGrad)"
      filter="url(#textShadow)" letter-spacing="4">
  POLLA
</text>
<!-- MUNDIALISTA -->
<text x="540" y="624"
      text-anchor="middle" dominant-baseline="middle"
      font-family="Impact, Arial Black, sans-serif"
      font-size="106" fill="white"
      filter="url(#textShadow)" letter-spacing="3">
  MUNDIALISTA
</text>
<!-- 2026 -->
<text x="540" y="685"
      text-anchor="middle" dominant-baseline="middle"
      font-family="Impact, Arial Black, sans-serif"
      font-size="60" fill="url(#goldGrad)"
      filter="url(#textShadow)" letter-spacing="14">
  2 0 2 6
</text>

<!-- Divider -->
<rect x="120" y="710" width="840" height="4" rx="2" fill="url(#goldGrad)"/>

<!-- ── TAGLINE ────────────────────────────────────────────────────────────── -->
<text x="540" y="770"
      text-anchor="middle"
      font-family="Arial, sans-serif" font-size="40" fill="#a8c8ff"
      letter-spacing="2">
  PREDICE · COMPITE · GANA
</text>

<!-- ── PRIZE BOXES ───────────────────────────────────────────────────────── -->
<!-- Left box -->
<rect x="55" y="810" width="455" height="200" rx="18" fill="url(#prizeGrad)" filter="url(#shadow)"/>
<rect x="55" y="810" width="455" height="200" rx="18" fill="none" stroke="#F5A623" stroke-width="2.5"/>
<text x="282" y="858" text-anchor="middle"
      font-family="Impact, Arial Black, sans-serif" font-size="36" fill="#F5A623" letter-spacing="2">
  FASE DE GRUPOS
</text>
<text x="282" y="918" text-anchor="middle"
      font-family="Impact, Arial Black, sans-serif" font-size="80" fill="url(#goldGrad)"
      filter="url(#glow)">
  $5
</text>
<text x="282" y="985" text-anchor="middle"
      font-family="Arial, sans-serif" font-size="30" fill="#aaddff">
  por participante
</text>

<!-- Right box -->
<rect x="570" y="810" width="455" height="200" rx="18" fill="url(#prizeGrad)" filter="url(#shadow)"/>
<rect x="570" y="810" width="455" height="200" rx="18" fill="none" stroke="#C8102E" stroke-width="2.5"/>
<text x="797" y="858" text-anchor="middle"
      font-family="Impact, Arial Black, sans-serif" font-size="32" fill="#ff7788" letter-spacing="2">
  FASE ELIMINATORIA
</text>
<text x="797" y="918" text-anchor="middle"
      font-family="Impact, Arial Black, sans-serif" font-size="80" fill="#ff9999"
      filter="url(#glow)">
  $10
</text>
<text x="797" y="985" text-anchor="middle"
      font-family="Arial, sans-serif" font-size="30" fill="#aaddff">
  por participante
</text>

<!-- ── SCORING INFO ──────────────────────────────────────────────────────── -->
<rect x="55" y="1040" width="970" height="120" rx="14" fill="rgba(0,30,80,0.7)"/>
<rect x="55" y="1040" width="970" height="120" rx="14" fill="none" stroke="rgba(255,255,255,0.15)" stroke-width="1.5"/>
<text x="540" y="1080" text-anchor="middle"
      font-family="Arial, sans-serif" font-size="31" fill="rgba(255,255,255,0.75)">
  Más participantes = Mayor pozo de premios
</text>
<text x="540" y="1128" text-anchor="middle"
      font-family="Arial Bold, Arial, sans-serif" font-size="32" fill="#F5A623" font-weight="bold">
  ¡Invita a tus amigos y sube el premio!
</text>

<!-- ── DEADLINE ──────────────────────────────────────────────────────────── -->
<rect x="0" y="1190" width="1080" height="140" fill="url(#redGrad)"/>
<rect x="0" y="1185" width="1080" height="8" fill="url(#goldGrad)"/>
<rect x="0" y="1322" width="1080" height="8" fill="url(#goldGrad)"/>

<text x="540" y="1244" text-anchor="middle"
      font-family="Impact, Arial Black, sans-serif" font-size="38" fill="white"
      letter-spacing="4">
  INSCRIPCION HASTA EL
</text>
<text x="540" y="1305" text-anchor="middle"
      font-family="Impact, Arial Black, sans-serif" font-size="58" fill="url(#goldGrad)"
      filter="url(#textShadow)" letter-spacing="4">
  10 DE JUNIO 2026
</text>

<!-- ── HOW TO JOIN ───────────────────────────────────────────────────────── -->
<rect x="55" y="1355" width="970" height="290" rx="18" fill="rgba(0,20,60,0.85)" filter="url(#shadow)"/>
<rect x="55" y="1355" width="970" height="290" rx="18" fill="none" stroke="rgba(91,156,246,0.4)" stroke-width="2"/>

<text x="540" y="1405" text-anchor="middle"
      font-family="Impact, Arial Black, sans-serif" font-size="40" fill="#5b9cf6" letter-spacing="3">
  CÓMO PARTICIPAR
</text>

<text x="120" y="1458" font-family="Arial, sans-serif" font-size="32" fill="url(#goldGrad)" font-weight="bold">1.</text>
<text x="165" y="1458" font-family="Arial, sans-serif" font-size="31" fill="white">Regístrate gratis en la plataforma</text>

<text x="120" y="1510" font-family="Arial, sans-serif" font-size="32" fill="url(#goldGrad)" font-weight="bold">2.</text>
<text x="165" y="1510" font-family="Arial, sans-serif" font-size="31" fill="white">Paga tu inscripción al admin</text>

<text x="120" y="1562" font-family="Arial, sans-serif" font-size="32" fill="url(#goldGrad)" font-weight="bold">3.</text>
<text x="165" y="1562" font-family="Arial, sans-serif" font-size="31" fill="white">Ingresa tus pronósticos</text>

<text x="120" y="1614" font-family="Arial, sans-serif" font-size="32" fill="url(#goldGrad)" font-weight="bold">4.</text>
<text x="165" y="1614" font-family="Arial, sans-serif" font-size="31" fill="white">Sigue el marcador en tiempo real</text>

<!-- ── WEBSITE ───────────────────────────────────────────────────────────── -->
<rect x="55" y="1675" width="970" height="120" rx="18"
      fill="rgba(245,166,35,0.12)" filter="url(#shadow)"/>
<rect x="55" y="1675" width="970" height="120" rx="18"
      fill="none" stroke="url(#goldGrad)" stroke-width="3"/>

<text x="540" y="1718" text-anchor="middle"
      font-family="Arial, sans-serif" font-size="30" fill="rgba(255,255,255,0.6)" letter-spacing="2">
  PLATAFORMA OFICIAL
</text>
<text x="540" y="1774" text-anchor="middle"
      font-family="Impact, Arial Black, sans-serif" font-size="56" fill="url(#goldGrad)"
      filter="url(#glow)" letter-spacing="1">
  mundial.infrony.app
</text>

<!-- ── BOTTOM STRIP ──────────────────────────────────────────────────────── -->
<rect x="0" y="1820" width="1080" height="100" fill="url(#redGrad2)"/>
<rect x="0" y="1817" width="1080" height="5" fill="url(#goldGrad)"/>

<!-- Flags -->
<text x="80"  y="1882" font-size="52" text-anchor="middle">🇺🇸</text>
<text x="200" y="1882" font-size="52" text-anchor="middle">🇲🇽</text>
<text x="320" y="1882" font-size="52" text-anchor="middle">🇨🇦</text>
<text x="760" y="1882" font-size="52" text-anchor="middle">🇵🇦</text>

<text x="620" y="1878" text-anchor="middle"
      font-family="Arial, sans-serif" font-size="28" fill="rgba(255,255,255,0.8)" letter-spacing="1">
  Hecho con amor en Panamá por infrony.com
</text>

</svg>